<svg width="42" height="42" viewBox="0 0 42 42" fill="none" xmlns="http://www.w3.org/2000/svg">
<path fill-rule="evenodd" clip-rule="evenodd" d="M20.2414 17.6842H21.7586C22.8632 17.6842 23.7586 16.7888 23.7586 15.6842V2C23.7586 0.895431 22.8632 0 21.7586 0H20.2414C19.1368 0 18.2414 0.895431 18.2414 2V15.6842C18.2414 16.7888 19.1368 17.6842 20.2414 17.6842ZM5 24.876C6.71236 23.2191 13.7895 19.6844 19.2687 27.6375V37.5789H20.4483V37.579H22.7313V27.6376C28.2105 19.6845 35.2876 23.2192 37 24.8761C36.9996 18.7177 29.1146 18.7586 22.0457 18.7953C21.6999 18.7971 21.3561 18.7988 21.0152 18.7999C20.6644 18.7989 20.3104 18.797 19.9543 18.7952C12.8854 18.7585 5.00042 18.7176 5 24.876ZM34.4723 41.9999C35.0549 38.387 35.9872 31.2753 35.0549 31.7316C31.7532 33.0627 24.9166 34.9262 23.9843 31.7316C22.819 27.7384 26.315 24.3157 30.9763 24.3157C34.7054 24.3157 36.4145 25.4566 36.803 26.0271C37.1914 29.8301 37.269 38.3489 34.4723 41.9999ZM32.7246 28.8794C32.3362 30.0203 30.5105 32.1881 26.3153 31.7317C25.1499 30.4006 24.2177 27.3962 29.8113 26.0271C30.7824 25.8369 32.7246 26.1412 32.7246 28.8794ZM7.5277 42C6.94504 38.3871 6.01279 31.2754 6.94504 31.7317C10.2468 33.0628 17.0833 34.9263 18.0155 31.7317C19.1808 27.7385 15.6849 24.3158 11.0236 24.3158C7.2946 24.3158 5.58547 25.4567 5.19703 26.0272C4.80861 29.8302 4.73097 38.349 7.5277 42ZM9.27539 28.8795C9.66383 30.0204 11.4895 32.1882 15.6846 31.7318C16.85 30.4007 17.7822 27.3963 12.1887 26.0272C11.2176 25.837 9.27539 26.1413 9.27539 28.8795ZM17.1379 17.4555C11.8061 16.4799 6.83785 18.6751 5.02019 19.8947C4.53549 7.69872 12.8967 3.0236 17.1379 2.21054V17.4555ZM36.9798 19.8947C35.1621 18.6751 30.1939 16.4798 24.8621 17.4555V2.21045C29.1033 3.02351 37.4645 7.69863 36.9798 19.8947Z" fill="#281506"/>
</svg>
