<svg width="42" height="42" viewBox="0 0 42 42" fill="none" xmlns="http://www.w3.org/2000/svg">
<path fill-rule="evenodd" clip-rule="evenodd" d="M22.1712 9.8863L22.1712 9.88588C21.7198 6.08067 21.5425 4.58583 16.8665 3.53497C15.0471 0.977835 16.6118 0.112846 17.6216 -6.70588e-06C25.8834 2.74089 26.38 9.75627 25.3709 11.0192C24.5637 12.0296 22.9586 11.1611 22.257 10.6005C22.2267 10.3537 22.1985 10.1158 22.1712 9.8863ZM17.01 12.902C13.9924 9.02225 10.0049 9.84849 8.38832 10.7466C5.37074 9.8844 6.05329 8.23193 6.77176 7.51347C16.4711 4.81921 19.7042 9.66888 19.7042 11.2854C19.7042 12.5787 17.908 12.902 17.01 12.902ZM28.5605 11.2663C28.4892 11.4533 28.4153 11.6473 28.3395 11.8488C28.6527 12.5603 29.5353 13.8706 30.5599 13.4195C31.8406 12.8558 34.2748 7.27565 29.0379 1.85811C28.2181 1.53947 26.6709 1.57503 27.0402 4.26644C30.205 6.94881 29.7412 8.16652 28.5605 11.2663ZM33.6558 13.5L33.6561 13.4997C34.9831 11.4965 35.5044 10.7096 33.6939 8.31099C33.8606 6.35015 34.9597 6.57087 35.4885 6.92633C38.3288 11.5873 35.7218 15.1443 34.727 15.3392C33.9312 15.4952 33.5157 14.4289 33.4073 13.8763C33.4918 13.7476 33.5738 13.6239 33.6529 13.5045L33.6548 13.5016L33.6558 13.5ZM26.0445 39.4827C28.5357 38.6436 34.1159 36.2605 36.5074 33.4411C37.3377 33.2733 38.8989 33.3404 38.5003 34.9515C38.002 36.9654 28.0375 42 27.041 42C26.0445 42 25.0481 39.8408 26.0445 39.4827ZM12.6993 27.2201V32.3007C7.04578 29.4781 3.65367 24.962 3.08832 22.704C2.63604 20.8975 4.03058 20.4459 4.78438 20.4459C7.49808 25.4136 11.1917 27.0319 12.6993 27.2201ZM13.7771 27.298V33.0324C16.0403 33.2236 21.4719 34.6381 25.093 38.7669C27.5448 38.1935 33.2404 36.129 36.4089 32.459V18.6963C32.6369 15.4468 23.5088 10.0946 17.1719 14.6822C19.0578 19.0786 21.0193 27.7568 13.7771 27.298Z" fill="#281506"/>
</svg>
