<svg width="84" height="84" viewBox="0 0 84 84" fill="none" xmlns="http://www.w3.org/2000/svg">
<g filter="url(#filter0_dii_163_993)">
<rect x="13" y="11" width="48" height="48" rx="4" fill="#6E3A11"/>
<path fill-rule="evenodd" clip-rule="evenodd" d="M50.0661 30.2406C50.2498 29.9505 50.4091 29.6439 50.5418 29.3238C50.8458 28.5898 51 27.8068 51 27.02C51 26.6276 50.9616 26.2342 50.8843 25.8456C50.652 24.6778 50.0787 23.6051 49.2368 22.7632C48.3949 21.9213 47.3222 21.348 46.1544 21.1157C45.7658 21.0384 45.3724 21 44.98 21C44.1932 21 43.4102 21.1542 42.6762 21.4582C42.3561 21.5909 42.0495 21.7502 41.7594 21.9339C41.7177 21.9603 41.6764 21.9872 41.6355 22.0146C40.9813 22.4517 40.4159 23.015 39.9746 23.6755C39.7544 24.0049 39.5684 24.3537 39.4182 24.7162C39.1349 25.4004 38.979 26.1338 38.9616 26.88H38.96V30.24H38.96V33.04H38.4V30.24H35.04V27.02H35.04L35.04 27.0052V26.88H35.0384C35.021 26.1338 34.8651 25.4004 34.5818 24.7163C34.4316 24.3537 34.2456 24.005 34.0255 23.6755C33.5841 23.015 33.0187 22.4517 32.3645 22.0146C32.3236 21.9872 32.2823 21.9603 32.2406 21.934C31.9505 21.7502 31.6439 21.5909 31.3238 21.4583C30.5898 21.1543 29.8068 21 29.02 21C28.6276 21 28.2342 21.0384 27.8456 21.1157C26.6778 21.348 25.6051 21.9213 24.7632 22.7632C23.9213 23.6051 23.348 24.6778 23.1157 25.8456C23.0384 26.2342 23 26.6276 23 27.02C23 27.8068 23.1543 28.5898 23.4583 29.3238C23.5909 29.6439 23.7502 29.9505 23.934 30.2406C23.9603 30.2823 23.9872 30.3236 24.0146 30.3645C24.4517 31.0187 25.015 31.5841 25.6755 32.0255C26.005 32.2456 26.3537 32.4316 26.7163 32.5818C27.4004 32.8651 28.1338 33.021 28.88 33.0384V33.04H29.0065L29.02 33.04V33.04H32.24V33.04H35.04V33.6H32.24V36.96H32.24V39.76H31.68V36.96H28.88V36.9616C28.1338 36.979 27.4004 37.1349 26.7162 37.4182C26.3537 37.5684 26.0049 37.7544 25.6755 37.9746C25.015 38.4159 24.4517 38.9813 24.0146 39.6355C23.9872 39.6764 23.9603 39.7177 23.9339 39.7594C23.7502 40.0495 23.5909 40.3561 23.4582 40.6763C23.1542 41.4102 23 42.1932 23 42.98C23 43.3724 23.0384 43.7658 23.1157 44.1544C23.348 45.3222 23.9213 46.3949 24.7632 47.2368C25.6051 48.0787 26.6778 48.652 27.8456 48.8843C28.2342 48.9616 28.6276 49 29.02 49C29.8068 49 30.5898 48.8458 31.3238 48.5418C31.6439 48.4092 31.9505 48.2498 32.2406 48.0661C32.2823 48.0397 32.3236 48.0128 32.3645 47.9855C33.0187 47.5483 33.5841 46.9851 34.0254 46.3245C34.2456 45.9951 34.4316 45.6463 34.5818 45.2838C34.8651 44.5996 35.021 43.8662 35.0384 43.12H35.04V42.9883L35.04 42.98L35.04 39.76H38.96V39.76H41.76V39.76H45.0404C45.4446 39.7676 45.8421 39.8512 46.2125 40.0046C46.4065 40.0849 46.593 40.1844 46.7693 40.3022C47.1227 40.5383 47.424 40.8408 47.6579 41.1908C47.7745 41.3653 47.8744 41.5517 47.9555 41.7476C48.1181 42.1402 48.2006 42.5592 48.2006 42.9801C48.2007 43.19 48.1801 43.4005 48.1388 43.6084C48.0145 44.2331 47.7078 44.807 47.2573 45.2574C46.8069 45.7078 46.2331 46.0145 45.6083 46.1388C45.4004 46.1802 45.19 46.2007 44.98 46.2007C44.5591 46.2007 44.1402 46.1182 43.7475 45.9555C43.5517 45.8744 43.3653 45.7746 43.1907 45.6579C42.8408 45.4241 42.5383 45.1227 42.3022 44.7693C42.1844 44.5931 42.0849 44.4065 42.0045 44.2125C41.8514 43.8428 41.7678 43.4461 41.76 43.0427V40.32H38.96V43.12H38.9616C38.979 43.8662 39.1349 44.5997 39.4183 45.2838C39.5684 45.6464 39.7544 45.9951 39.9746 46.3246C40.4159 46.9851 40.9813 47.5484 41.6355 47.9855C41.6764 48.0129 41.7177 48.0397 41.7594 48.0661C42.0495 48.2498 42.3561 48.4092 42.6763 48.5418C43.4102 48.8458 44.1933 49.0001 44.98 49.0001C45.3725 49.0001 45.7658 48.9617 46.1545 48.8844C47.3222 48.6521 48.3949 48.0788 49.2368 47.2368C50.0787 46.3949 50.6521 45.3223 50.8843 44.1545C50.9616 43.7659 51 43.3725 51 42.9801C51 42.1933 50.8458 41.4102 50.5418 40.6763C50.4092 40.3562 50.2498 40.0496 50.0661 39.7594C50.0397 39.7178 50.0128 39.6765 49.9855 39.6355C49.5484 38.9814 48.9851 38.416 48.3246 37.9746C47.9951 37.7545 47.6463 37.5685 47.2838 37.4183C46.5996 37.1349 45.8662 36.979 45.12 36.9617V36.96H41.76L38.96 36.96V36.96H35.6V39.76H35.04V36.96H35.04V33.04H38.96V36.4H41.76V33.04H44.98L44.9834 33.04H45.12V33.0384C45.8662 33.021 46.5996 32.8651 47.2838 32.5818C47.6463 32.4316 47.9951 32.2456 48.3245 32.0254C48.985 31.5841 49.5483 31.0187 49.9854 30.3645C50.0128 30.3236 50.0397 30.2823 50.0661 30.2406ZM42.0045 25.7875C41.8515 26.157 41.7679 26.5534 41.76 26.9565V30.24L41.76 33.04H42.32V30.24H45.0438C45.4468 30.232 45.8431 30.1485 46.2125 29.9955C46.4065 29.9151 46.593 29.8156 46.7693 29.6979C47.1227 29.4617 47.424 29.1593 47.6579 28.8093C47.7745 28.6347 47.8743 28.4483 47.9555 28.2525C48.1181 27.8598 48.2006 27.4409 48.2006 27.02C48.2006 26.81 48.1801 26.5996 48.1387 26.3917C48.0145 25.7669 47.7077 25.1931 47.2573 24.7427C46.8069 24.2923 46.2331 23.9855 45.6083 23.8613C45.4004 23.8199 45.19 23.7994 44.98 23.7994C44.5591 23.7994 44.1402 23.8819 43.7475 24.0445C43.5517 24.1257 43.3653 24.2255 43.1907 24.3421C42.8407 24.576 42.5383 24.8773 42.3021 25.2307C42.1844 25.407 42.0849 25.5935 42.0045 25.7875ZM32.24 39.76H28.9568C28.5536 39.7679 28.1571 39.8514 27.7875 40.0045C27.5935 40.0849 27.407 40.1844 27.2307 40.3021C26.8773 40.5383 26.576 40.8407 26.3421 41.1907C26.2255 41.3653 26.1257 41.5517 26.0445 41.7475C25.8819 42.1402 25.7994 42.5591 25.7994 42.98C25.7994 43.19 25.8199 43.4004 25.8613 43.6083C25.9855 44.2331 26.2923 44.8069 26.7427 45.2573C27.1931 45.7077 27.7669 46.0145 28.3917 46.1388C28.5996 46.1801 28.81 46.2006 29.02 46.2006C29.4409 46.2006 29.8598 46.1181 30.2525 45.9555C30.4483 45.8744 30.6347 45.7745 30.8093 45.6579C31.1593 45.424 31.4617 45.1227 31.6979 44.7693C31.8156 44.593 31.9151 44.4065 31.9955 44.2125C32.1485 43.8432 32.232 43.447 32.24 43.044V39.76ZM32.24 30.24H28.9555C28.5527 30.2319 28.1567 30.1484 27.7875 29.9955C27.5936 29.9151 27.407 29.8156 27.2307 29.6979C26.8774 29.4618 26.576 29.1593 26.3422 28.8093C26.2255 28.6347 26.1257 28.4484 26.0445 28.2525C25.8819 27.8599 25.7994 27.4409 25.7994 27.02C25.7994 26.8101 25.8199 26.5996 25.8613 26.3917C25.9855 25.767 26.2923 25.1931 26.7427 24.7427C27.1931 24.2923 27.767 23.9855 28.3917 23.8613C28.5996 23.8199 28.8101 23.7994 29.02 23.7994C29.4409 23.7994 29.8599 23.8819 30.2525 24.0445C30.4483 24.1257 30.6347 24.2255 30.8093 24.3422C31.1593 24.576 31.4618 24.8774 31.6979 25.2307C31.8156 25.407 31.9151 25.5936 31.9955 25.7875C32.1484 26.1567 32.2319 26.5526 32.24 26.9554V29.68H35.04V30.24H32.24V30.24Z" fill="#EEBC20"/>
<rect x="14" y="12" width="46" height="46" rx="3" stroke="#EEBC20" stroke-width="2" stroke-linejoin="round" stroke-dasharray="7 1"/>
</g>
<defs>
<filter id="filter0_dii_163_993" x="0.64" y="0.77" width="82.66" height="82.66" filterUnits="userSpaceOnUse" color-interpolation-filters="sRGB">
<feFlood flood-opacity="0" result="BackgroundImageFix"/>
<feColorMatrix in="SourceAlpha" type="matrix" values="0 0 0 0 0 0 0 0 0 0 0 0 0 0 0 0 0 0 127 0" result="hardAlpha"/>
<feOffset dx="4.97" dy="7.1"/>
<feGaussianBlur stdDeviation="8.665"/>
<feComposite in2="hardAlpha" operator="out"/>
<feColorMatrix type="matrix" values="0 0 0 0 0.3345 0 0 0 0 0.2595 0 0 0 0 0.0255 0 0 0 0.8 0"/>
<feBlend mode="normal" in2="BackgroundImageFix" result="effect1_dropShadow_163_993"/>
<feBlend mode="normal" in="SourceGraphic" in2="effect1_dropShadow_163_993" result="shape"/>
<feColorMatrix in="SourceAlpha" type="matrix" values="0 0 0 0 0 0 0 0 0 0 0 0 0 0 0 0 0 0 127 0" result="hardAlpha"/>
<feOffset dx="3.31" dy="4.73"/>
<feGaussianBlur stdDeviation="2.89"/>
<feComposite in2="hardAlpha" operator="arithmetic" k2="-1" k3="1"/>
<feColorMatrix type="matrix" values="0 0 0 0 0.829375 0 0 0 0 0.47502 0 0 0 0 0.195625 0 0 0 0.8 0"/>
<feBlend mode="normal" in2="shape" result="effect2_innerShadow_163_993"/>
<feColorMatrix in="SourceAlpha" type="matrix" values="0 0 0 0 0 0 0 0 0 0 0 0 0 0 0 0 0 0 127 0" result="hardAlpha"/>
<feOffset dx="-3.31" dy="-4.73"/>
<feGaussianBlur stdDeviation="2.89"/>
<feComposite in2="hardAlpha" operator="arithmetic" k2="-1" k3="1"/>
<feColorMatrix type="matrix" values="0 0 0 0 0.28776 0 0 0 0 0.147684 0 0 0 0 0.0372396 0 0 0 1 0"/>
<feBlend mode="normal" in2="effect2_innerShadow_163_993" result="effect3_innerShadow_163_993"/>
</filter>
</defs>
</svg>
