<svg width="42" height="42" viewBox="0 0 42 42" fill="none" xmlns="http://www.w3.org/2000/svg">
<path fill-rule="evenodd" clip-rule="evenodd" d="M0 21C0 9.40202 9.40202 0 21 0C32.598 0 42 9.40202 42 21C42 32.598 32.598 42 21 42C9.40202 42 0 32.598 0 21ZM1.16667 21C1.16667 10.0464 10.0464 1.16667 21 1.16667C31.9536 1.16667 40.8333 10.0464 40.8333 21C40.8333 31.9536 31.9536 40.8333 21 40.8333C10.0464 40.8333 1.16667 31.9536 1.16667 21ZM4.66667 21C4.66667 11.9793 11.9793 4.66667 21 4.66667C30.0207 4.66667 37.3333 11.9793 37.3333 21C37.3333 30.0207 30.0207 37.3333 21 37.3333C11.9793 37.3333 4.66667 30.0207 4.66667 21ZM15.1668 21C15.1668 17.7784 17.7785 15.1667 21.0002 15.1667C24.2218 15.1667 26.8335 17.7784 26.8335 21C26.8335 24.2217 24.2218 26.8333 21.0002 26.8333C17.7785 26.8333 15.1668 24.2217 15.1668 21Z" fill="#281506"/>
</svg>
